<svg width="37" height="43" viewBox="0 0 37 43" fill="none" xmlns="http://www.w3.org/2000/svg">
<path d="M8.17098 36.5981V13.2576L10.8167 14.6671V36.6143L8.17098 36.5981ZM17.2028 41.6722V18.5169L19.8485 18.5652V41.6722H17.2028ZM0.5 32.3939V11.1716L3.16089 9.82658V31.7738L0.5 32.3939ZM18.022 21.07L0.82691 12.3394L3.92115 10.8414L19.17 18.541L18.0296 21.07H18.022ZM35.1696 13.5717L17.4689 3.06121L18.5257 0.500031L36.4639 11.1233L35.1772 13.5717H35.1696ZM18.6169 42.9286L0.5 32.4423L1.78483 29.9918L19.7687 40.4077L18.6169 42.9286ZM2.56029 13.1609L0.5 11.1716L18.5257 0.548355L19.7839 3.0592L2.56029 13.1609ZM33.8524 32.2892V12.0978L36.4981 11.1313V32.2973L33.8524 32.2892ZM18.6967 32.4523L17.4803 29.9636L34.5518 20.6049L35.7683 23.0956L18.6967 32.4604V32.4523ZM18.1265 21.4747L16.9861 18.9457L34.472 10.044L35.6124 12.573L18.1265 21.4747ZM18.6188 42.9206L17.4613 40.3976L34.7704 30.0744L36.5 32.2409L18.6188 42.9125V42.9206Z" fill="url(#paint0_linear_100_218)"/>
<defs>
<linearGradient id="paint0_linear_100_218" x1="0.5" y1="52.1215" x2="48.8217" y2="43.3284" gradientUnits="userSpaceOnUse">
<stop stop-color="#DB00FF"/>
<stop offset="1" stop-color="#2C5EE0"/>
</linearGradient>
</defs>
</svg>
