<svg width="112" height="40" viewBox="0 0 112 40" fill="none" xmlns="http://www.w3.org/2000/svg">
<mask id="path-1-inside-1_1776_3089" fill="white">
<path fill-rule="evenodd" clip-rule="evenodd" d="M0 8C0 3.58172 3.58172 0 8 0H104C108.418 0 112 3.58172 112 8V13C108.134 13 105 16.134 105 20C105 23.866 108.134 27 112 27V32C112 36.4183 108.418 40 104 40H8C3.58172 40 0 36.4183 0 32V27C3.86599 27 7 23.866 7 20C7 16.134 3.86599 13 0 13V8Z"/>
</mask>
<path fill-rule="evenodd" clip-rule="evenodd" d="M0 8C0 3.58172 3.58172 0 8 0H104C108.418 0 112 3.58172 112 8V13C108.134 13 105 16.134 105 20C105 23.866 108.134 27 112 27V32C112 36.4183 108.418 40 104 40H8C3.58172 40 0 36.4183 0 32V27C3.86599 27 7 23.866 7 20C7 16.134 3.86599 13 0 13V8Z" fill="white" fill-opacity="0.1"/>
<path d="M112 13V14H113V13H112ZM112 27H113V26H112V27ZM0 27V26H-1V27H0ZM0 13H-1V14H0V13ZM8 -1C3.02944 -1 -1 3.02944 -1 8H1C1 4.13401 4.13401 1 8 1V-1ZM104 -1H8V1H104V-1ZM113 8C113 3.02944 108.971 -1 104 -1V1C107.866 1 111 4.13401 111 8H113ZM113 13V8H111V13H113ZM106 20C106 16.6863 108.686 14 112 14V12C107.582 12 104 15.5817 104 20H106ZM112 26C108.686 26 106 23.3137 106 20H104C104 24.4183 107.582 28 112 28V26ZM113 32V27H111V32H113ZM104 41C108.971 41 113 36.9706 113 32H111C111 35.866 107.866 39 104 39V41ZM8 41H104V39H8V41ZM-1 32C-1 36.9706 3.02944 41 8 41V39C4.13401 39 1 35.866 1 32H-1ZM-1 27V32H1V27H-1ZM6 20C6 23.3137 3.31371 26 0 26V28C4.41828 28 8 24.4183 8 20H6ZM0 14C3.31371 14 6 16.6863 6 20H8C8 15.5817 4.41828 12 0 12V14ZM-1 8V13H1V8H-1Z" fill="url(#paint0_linear_1776_3089)" fill-opacity="0.35" mask="url(#path-1-inside-1_1776_3089)"/>
<defs>
<linearGradient id="paint0_linear_1776_3089" x1="56" y1="0" x2="56" y2="40" gradientUnits="userSpaceOnUse">
<stop stop-color="white" stop-opacity="0.25"/>
<stop offset="1" stop-color="white" stop-opacity="0"/>
</linearGradient>
</defs>
</svg>
