<svg width="420" height="85" viewBox="0 0 420 85" fill="none" xmlns="http://www.w3.org/2000/svg">
<mask id="path-1-inside-1_1776_3156" fill="white">
<path fill-rule="evenodd" clip-rule="evenodd" d="M0 12C0 5.37258 5.37258 0 12 0H408C414.627 0 420 5.37258 420 12V30C413.373 30 408 35.3726 408 42C408 48.6274 413.373 54 420 54V73C420 79.6274 414.627 85 408 85H12C5.37258 85 0 79.6274 0 73V53.9589C0.329733 53.9861 0.663247 54 1 54C7.62742 54 13 48.6274 13 42C13 35.3726 7.62742 30 1 30C0.663247 30 0.329733 30.0139 0 30.0411V12Z"/>
</mask>
<path fill-rule="evenodd" clip-rule="evenodd" d="M0 12C0 5.37258 5.37258 0 12 0H408C414.627 0 420 5.37258 420 12V30C413.373 30 408 35.3726 408 42C408 48.6274 413.373 54 420 54V73C420 79.6274 414.627 85 408 85H12C5.37258 85 0 79.6274 0 73V53.9589C0.329733 53.9861 0.663247 54 1 54C7.62742 54 13 48.6274 13 42C13 35.3726 7.62742 30 1 30C0.663247 30 0.329733 30.0139 0 30.0411V12Z" fill="url(#paint0_linear_1776_3156)" fill-opacity="0.15"/>
<path d="M420 30V31H421V30H420ZM420 54H421V53H420V54ZM0 53.9589L0.0822195 52.9623L-1 52.873V53.9589H0ZM0 30.0411H-1V31.127L0.0822195 31.0377L0 30.0411ZM12 -1C4.8203 -1 -1 4.8203 -1 12H1C1 5.92487 5.92487 1 12 1V-1ZM408 -1H12V1H408V-1ZM421 12C421 4.8203 415.18 -1 408 -1V1C414.075 1 419 5.92487 419 12H421ZM421 30V12H419V30H421ZM409 42C409 35.9249 413.925 31 420 31V29C412.82 29 407 34.8203 407 42H409ZM420 53C413.925 53 409 48.0751 409 42H407C407 49.1797 412.82 55 420 55V53ZM421 73V54H419V73H421ZM408 86C415.18 86 421 80.1797 421 73H419C419 79.0751 414.075 84 408 84V86ZM12 86H408V84H12V86ZM-1 73C-1 80.1797 4.8203 86 12 86V84C5.92487 84 1 79.0751 1 73H-1ZM-1 53.9589V73H1V53.9589H-1ZM1 53C0.690718 53 0.384634 52.9873 0.0822195 52.9623L-0.0822195 54.9555C0.274833 54.985 0.635776 55 1 55V53ZM12 42C12 48.0751 7.07513 53 1 53V55C8.1797 55 14 49.1797 14 42H12ZM1 31C7.07513 31 12 35.9249 12 42H14C14 34.8203 8.1797 29 1 29V31ZM0.0822195 31.0377C0.384634 31.0127 0.690718 31 1 31V29C0.635776 29 0.274833 29.015 -0.0822195 29.0445L0.0822195 31.0377ZM-1 12V30.0411H1V12H-1Z" fill="url(#paint1_linear_1776_3156)" mask="url(#path-1-inside-1_1776_3156)"/>
<defs>
<linearGradient id="paint0_linear_1776_3156" x1="-9.88846e-07" y1="103.417" x2="274.342" y2="-187.305" gradientUnits="userSpaceOnUse">
<stop stop-color="#DB00FF"/>
<stop offset="1" stop-color="#2C5EE0"/>
</linearGradient>
<linearGradient id="paint1_linear_1776_3156" x1="-9.88846e-07" y1="103.417" x2="274.342" y2="-187.305" gradientUnits="userSpaceOnUse">
<stop stop-color="#DB00FF"/>
<stop offset="1" stop-color="#2C5EE0"/>
</linearGradient>
</defs>
</svg>
